# xmcd CD database file
#
# Track frame offsets:
#	150
#	11625
#	23550
#	36975
#	49275
#	69150
#	80550
#	93750
#	105450
#	117975
#	131100
#	140025
#	153450
#	170175
#	184950
#	199125
#
# Disc length: 2810 seconds
#
# Revision: 4
# Processed by: cddbd v1.5.2PL0 Copyright (c) Steve Scherf et al.
# Submitted via: CDex 1.78
#
DISCID=e00af810
DTITLE=Various Artist - Country and Western Classics Vol.3 CD2
DYEAR=1994
DGENRE=Country
TTITLE0=Roger Miller - Walking In The Sunshine
TTITLE1=Frankie Laine - High Noon
TTITLE2=The Carpenters - Top Of The World
TTITLE3=Dean Martin - My Pony, My Rifle And Me
TTITLE4=Arlo Guthrie - City Of New Orleans
TTITLE5=Henson Cargill - Skip A Rope
TTITLE6=Glen Campbell - Southern Nights
TTITLE7=Kitty Wells - Amigos Guitar
TTITLE8=Kingston Trio - Greenback Dollar
TTITLE9=Donna Fargo - Daddy
TTITLE10=Roger Miller - I Get Up Early In The Morning
TTITLE11=Jimmy Dean - Big Bad John
TTITLE12=Nancy Sinatra/Lee Hazlewood - Sand
TTITLE13=Kingston Trio - Tom Dooley
TTITLE14=Gene Pitney - Somewhere In The Country
TTITLE15=Warner Mack - Is It Wrong
EXTD=YEAR: 1994
EXTT0=
EXTT1=
EXTT2=
EXTT3=
EXTT4=
EXTT5=
EXTT6=
EXTT7=
EXTT8=
EXTT9=
EXTT10=
EXTT11=
EXTT12=
EXTT13=
EXTT14=
EXTT15=
PLAYORDER=
